<svg style="width: 1.01171875em; height: 1em;vertical-align: middle;fill: currentColor;overflow: hidden; font-size:36px"
     viewBox="0 0 1036 1024" version="1.1" xmlns="http://www.w3.org/2000/svg" p-id="2731">
    <path d="M529.022256 226.630774c-142.082025 0.158484-257.225205 115.299923-257.381948 257.383689v267.012916h524.393122V493.643689c-0.182866-147.390377-119.620797-266.828308-267.011174-267.012915z m219.338756 476.722445H462.328241V464.994609h-47.672418v238.35861h-95.344838V484.014463c0.13236-115.764927 93.944603-209.57891 209.70953-209.711271 121.083729 0.130619 219.208136 98.256768 219.338755 219.338756v209.711271h0.001742z m143.015514 95.343095v47.672419H176.297212v-47.672419h715.079314zM557.673079 178.960097h-47.672419V83.615259h47.672419v95.344838z m-247.085695 86.429661l-57.540242-71.509499 37.184591-29.843808 57.540242 71.509499-37.184591 29.843808z m441.969107 0.620004l-36.136157-31.082075 61.545889-71.509499 36.134415 31.082076-61.544147 71.509498z"
          p-id="2732"></path>
</svg>